<svg width="16" height="22" viewBox="0 0 16 22" fill="none" xmlns="http://www.w3.org/2000/svg">
<path d="M14 7.83972H13V5.83972C13 3.07972 10.76 0.839722 8 0.839722C5.24 0.839722 3 3.07972 3 5.83972V7.83972H2C0.9 7.83972 0 8.73972 0 9.83972V19.8397C0 20.9397 0.9 21.8397 2 21.8397H14C15.1 21.8397 16 20.9397 16 19.8397V9.83972C16 8.73972 15.1 7.83972 14 7.83972ZM8 16.8397C6.9 16.8397 6 15.9397 6 14.8397C6 13.7397 6.9 12.8397 8 12.8397C9.1 12.8397 10 13.7397 10 14.8397C10 15.9397 9.1 16.8397 8 16.8397ZM11.1 7.83972H4.9V5.83972C4.9 4.12972 6.29 2.73972 8 2.73972C9.71 2.73972 11.1 4.12972 11.1 5.83972V7.83972Z" fill="#FFC042"/>
</svg>
